<svg id="Layer_1" xmlns="http://www.w3.org/2000/svg" viewBox="0 0 17 17"><style>.st0{fill:#6720df}</style><path class="st0" d="M17 3.5C17 1.2 12.6 0 8.5 0S0 1.2 0 3.5c0 .1 0 .3.1.5H0v9.5C0 15.8 4.4 17 8.5 17s8.5-1.2 8.5-3.5V4h-.1c.1-.2.1-.4.1-.5zM8.5 1C12.8 1 16 2.3 16 3.5c0 .4-.4.8-1.1 1.2-1.4.8-3.8 1.3-6.4 1.3s-5-.5-6.4-1.3C1.4 4.3 1 3.9 1 3.5 1 2.3 4.2 1 8.5 1zm0 15C4.2 16 1 14.7 1 13.5v-1.6c.2.1.4.3.6.4 1.6.9 4.1 1.4 6.9 1.4h1c2.4-.1 4.5-.6 5.9-1.4.2-.1.4-.3.6-.4v1.6c0 1.2-3.2 2.5-7.5 2.5zm6.4-4.6c-1.4.8-3.8 1.3-6.4 1.3h-1c-2.2-.1-4.2-.6-5.4-1.2-.7-.5-1.1-.9-1.1-1.3V8.5c.2.1.4.3.6.4 1.6.9 4.1 1.4 6.9 1.4s5.3-.5 6.9-1.4c.2-.1.4-.3.6-.4v1.6c0 .5-.4.9-1.1 1.3zm0-3.3c-1.4.8-3.8 1.3-6.4 1.3s-5-.5-6.4-1.3C1.4 7.7 1 7.2 1 6.8V5.2c.2.1.4.3.6.4C3.2 6.5 5.7 7 8.5 7s5.3-.5 6.9-1.4c.2-.1.4-.3.6-.4v1.6c0 .4-.4.9-1.1 1.3z"/></svg>