<?xml version="1.0" encoding="UTF-8"?>
<svg width="15px" height="19px" viewBox="0 0 15 19" version="1.1" xmlns="http://www.w3.org/2000/svg" xmlns:xlink="http://www.w3.org/1999/xlink">
    <title>lock</title>
    <g id="Page-1" stroke="none" stroke-width="1" fill="none" fill-rule="evenodd">
        <g id="lock" fill="#F76A92" fill-rule="nonzero">
            <path d="M8.5294785,1.00024994 C8.51171971,1.00009998 8.49391331,1 8.47610691,1 C8.21320067,1 8,1.22379405 8,1.49987503 C8,1.77595601 8.21320067,1.99975006 8.47610691,1.99975006 C8.49019968,1.99975006 8.50429244,1.99985004 8.51833759,2 C8.52024202,2 8.52214645,2 8.52400327,2 C8.78438614,2 8.99696787,1.780005 8.99996734,1.50597351 C9.00301443,1.22989253 8.79243234,1.00349913 8.5294785,1.00024994 Z" id="Path"></path>
            <path d="M13.8861386,7.19921875 L12.289604,7.19921875 L12.289604,4.78710938 C12.289604,2.14748242 10.1410025,0 7.5,0 C4.85899752,0 2.71039604,2.14748242 2.71039604,4.78710938 L2.71039604,7.19921875 L1.11386139,7.19921875 C0.499678218,7.19921875 0,7.69863672 0,8.3125 L0,17.8867188 C0,18.500582 0.499678218,19 1.11386139,19 L13.8861386,19 C14.5003218,19 15,18.500582 15,17.8867188 L15,8.3125 C15,7.69863672 14.5003218,7.19921875 13.8861386,7.19921875 Z M14.2574257,17.8867188 C14.2574257,18.0913398 14.0908663,18.2578125 13.8861386,18.2578125 L1.11386139,18.2578125 C0.909133663,18.2578125 0.742574257,18.0913398 0.742574257,17.8867188 L0.742574257,8.3125 C0.742574257,8.10787891 0.909133663,7.94140625 1.11386139,7.94140625 L6.27475248,7.94140625 C6.47977723,7.94140625 6.6460396,7.77526758 6.6460396,7.5703125 C6.6460396,7.36535742 6.47977723,7.19921875 6.27475248,7.19921875 L4.93811881,7.19921875 L4.93811881,4.78710938 C4.93811881,3.75680469 5.55285891,2.83077734 6.50424505,2.42788086 C6.69304455,2.34794727 6.78126238,2.13015234 6.70128713,1.94141406 C6.62131188,1.75271289 6.40347772,1.66450391 6.21456683,1.74451172 C4.98805693,2.26389453 4.19554455,3.45818555 4.19554455,4.78710938 L4.19554455,7.19921875 L3.4529703,7.19921875 L3.4529703,4.78710938 C3.4529703,2.55672461 5.26845297,0.7421875 7.5,0.7421875 C9.73154703,0.7421875 11.5470297,2.55672461 11.5470297,4.78710938 L11.5470297,7.19921875 L10.8044554,7.19921875 L10.8044554,4.78710938 C10.8044554,3.48861523 10.037005,2.30523438 8.84933168,1.77234375 C8.6622401,1.68851367 8.4425495,1.77193555 8.35852723,1.95892969 C8.27454208,2.14592383 8.35811881,2.36553711 8.54517327,2.44944141 C9.46655941,2.86283984 10.0618812,3.78040625 10.0618812,4.78710938 L10.0618812,7.19921875 L8.85516089,7.19921875 C8.65013614,7.19921875 8.48387376,7.36535742 8.48387376,7.5703125 C8.48387376,7.77526758 8.65013614,7.94140625 8.85516089,7.94140625 L13.8861386,7.94140625 C14.0908663,7.94140625 14.2574257,8.10787891 14.2574257,8.3125 L14.2574257,17.8867188 Z" id="Shape"></path>
            <path d="M8.50622161,8 L8.49377839,8 C8.22111396,8 8,8.22385 8,8.5 C8,8.77615 8.22111396,9 8.49377839,9 L8.50622161,9 C8.77888604,9 9,8.77615 9,8.5 C9,8.22385 8.77888604,8 8.50622161,8 Z" id="Path"></path>
            <path d="M8.48257143,13.4912162 C8.81003571,13.22375 9,12.8364865 9,12.4189189 C9,11.6365203 8.32710714,11 7.5,11 C6.67289286,11 6,11.6365203 6,12.4189189 C6,12.8414189 6.20257143,13.2419595 6.54075,13.5092568 L6.304,15.6266216 C6.29332143,15.7218581 6.32592857,15.8169257 6.39367857,15.8881419 C6.46139286,15.9593243 6.55792857,16 6.65917857,16 L8.36614286,16 C8.46739286,16 8.56389286,15.9593243 8.63164286,15.8881419 C8.69935714,15.8169257 8.732,15.7218919 8.72132143,15.6266216 L8.48257143,13.4912162 Z M7.91625,13.0491554 C7.80067857,13.1177027 7.73642857,13.2426014 7.75078571,13.3709459 L7.96917857,15.3243243 L7.05603571,15.3243243 L7.27289286,13.3846622 C7.28757143,13.2533446 7.22007143,13.1259797 7.1,13.0585811 C6.85846429,12.9230405 6.71428571,12.6838851 6.71428571,12.4189189 C6.71428571,12.0090878 7.06675,11.6756757 7.5,11.6756757 C7.93325,11.6756757 8.28571429,12.0090878 8.28571429,12.4189189 C8.28571429,12.6763851 8.14760714,12.9119932 7.91625,13.0491554 Z" id="Shape"></path>
        </g>
    </g>
</svg>