<svg xmlns="http://www.w3.org/2000/svg" xmlns:xlink="http://www.w3.org/1999/xlink" width="221" height="40" viewBox="0 0 221 40">
  <defs>
    <linearGradient id="linear-gradient" y1="0.5" x2="1" y2="0.5" gradientUnits="objectBoundingBox">
      <stop offset="0" stop-color="#fff"/>
      <stop offset="0.473" stop-color="#fff" stop-opacity="0.635"/>
      <stop offset="0.825" stop-color="#fff" stop-opacity="0.698"/>
      <stop offset="1" stop-color="#fff"/>
    </linearGradient>
    <linearGradient id="linear-gradient-2" y1="0.5" x2="1" y2="0.5" gradientUnits="objectBoundingBox">
      <stop offset="0"/>
      <stop offset="0.207" stop-opacity="0.925"/>
      <stop offset="1" stop-opacity="0"/>
    </linearGradient>
    <linearGradient id="linear-gradient-3" y1="0.5" x2="1" y2="0.5" gradientUnits="objectBoundingBox">
      <stop offset="0" stop-color="#fff"/>
      <stop offset="0.103" stop-color="#fff" stop-opacity="0.812"/>
      <stop offset="0.235" stop-color="#fff" stop-opacity="0.6"/>
      <stop offset="0.368" stop-color="#fff" stop-opacity="0.416"/>
      <stop offset="0.5" stop-color="#fff" stop-opacity="0.267"/>
      <stop offset="0.63" stop-color="#fff" stop-opacity="0.149"/>
      <stop offset="0.758" stop-color="#fff" stop-opacity="0.067"/>
      <stop offset="0.882" stop-color="#fff" stop-opacity="0.016"/>
      <stop offset="1" stop-color="#fff" stop-opacity="0"/>
    </linearGradient>
    <clipPath id="clip-logo">
      <rect width="221" height="40"/>
    </clipPath>
  </defs>
  <g id="logo" clip-path="url(#clip-logo)">
    <g id="Group_6" data-name="Group 6" transform="translate(-113 -356.789)">
      <path id="Path_14" data-name="Path 14" d="M137.158,367.694l-8.344,12.973a2.877,2.877,0,0,1-4.84,0l-10.119-15.733a5.286,5.286,0,0,1,4.446-8.145h12.906A7.077,7.077,0,0,1,137.158,367.694Zm19-10.9h-4.9a3.473,3.473,0,0,0-2.921,1.594l-18.139,28.2a3.473,3.473,0,0,0,0,3.757l2.587,4.022a5.285,5.285,0,0,0,8.891,0L160.6,364.934A5.286,5.286,0,0,0,156.157,356.789Z" transform="translate(0 0)" fill="url(#linear-gradient)"/>
      <path id="Path_15" data-name="Path 15" d="M161.255,367.694l-5.108,7.942a22.223,22.223,0,0,1-8.133-17.206c0-.552.027-1.1.067-1.64H155.3A7.077,7.077,0,0,1,161.255,367.694Zm19-10.9h-4.9a3.473,3.473,0,0,0-2.921,1.594l-12.658,19.681a22.308,22.308,0,0,0,15.092,2.159l9.834-15.289A5.286,5.286,0,0,0,180.254,356.789Z" transform="translate(-24.097 0)" opacity="0.77" fill="url(#linear-gradient-2)" style="mix-blend-mode: overlay;isolation: isolate"/>
      <path id="Path_16" data-name="Path 16" d="M227.217,356.789h-4.9a3.473,3.473,0,0,0-2.921,1.594l-3.153,4.9c2.769,2.229,6.393,6.5,7.458,14.028l7.962-12.379A5.286,5.286,0,0,0,227.217,356.789Z" transform="translate(-71.06 0)" opacity="0.61" fill="url(#linear-gradient-3)" style="mix-blend-mode: overlay;isolation: isolate"/>
    </g>
    <path id="Path_470" data-name="Path 470" d="M8.1,0,.51-20.01H4.23l6.39,17.7H9.51l6.3-17.67,3.48-.03L11.52,0ZM27.84.45a8.542,8.542,0,0,1-3.555-.675,5.035,5.035,0,0,1-2.3-2.025,6.431,6.431,0,0,1-.81-3.36v-9.45h3.15v9a4.039,4.039,0,0,0,.855,2.835,3.474,3.474,0,0,0,2.655.915,3.474,3.474,0,0,0,2.655-.915A4.039,4.039,0,0,0,31.35-6.06v-9h3.03v9.45a5.738,5.738,0,0,1-1.725,4.53A7.01,7.01,0,0,1,27.84.45ZM51.87-9.96V0H48.72V-9.54a4.743,4.743,0,0,0-.135-1.125,2.582,2.582,0,0,0-.51-1.02,2.494,2.494,0,0,0-1.08-.735,5.25,5.25,0,0,0-1.845-.27,8.879,8.879,0,0,0-1.62.15,9.942,9.942,0,0,0-1.56.42V0H38.82V-13.83a12.327,12.327,0,0,1,1.485-.615,16.516,16.516,0,0,1,1.755-.495q.93-.21,1.89-.33a15,15,0,0,1,1.86-.12,8.6,8.6,0,0,1,3.45.585,3.972,3.972,0,0,1,1.965,1.8A6.447,6.447,0,0,1,51.87-9.96Zm-3.6-3.09a9.283,9.283,0,0,1,2.115-1.29,12.467,12.467,0,0,1,2.4-.78,11.515,11.515,0,0,1,2.445-.27,8.6,8.6,0,0,1,3.45.585,3.972,3.972,0,0,1,1.965,1.8A6.447,6.447,0,0,1,61.29-9.96V0H58.14V-9.54A4.743,4.743,0,0,0,58-10.665a2.582,2.582,0,0,0-.51-1.02,2.494,2.494,0,0,0-1.08-.735,5.25,5.25,0,0,0-1.845-.27,5.678,5.678,0,0,0-1.62.24,5.594,5.594,0,0,0-1.56.75ZM71.19.45A11.007,11.007,0,0,1,68.94.225,6.147,6.147,0,0,1,66.975-.54a3.95,3.95,0,0,1-1.41-1.485A4.8,4.8,0,0,1,65.04-4.38a5.222,5.222,0,0,1,.66-2.76,4.064,4.064,0,0,1,1.89-1.62,7.281,7.281,0,0,1,2.94-.54,10.693,10.693,0,0,1,2.055.18,8.207,8.207,0,0,1,1.65.495,5.815,5.815,0,0,1,1.245.7l.33,2.07a6.132,6.132,0,0,0-1.77-.765,8.761,8.761,0,0,0-2.4-.315,4.631,4.631,0,0,0-2.6.6,2.03,2.03,0,0,0-.885,1.8,2.066,2.066,0,0,0,.51,1.455,2.973,2.973,0,0,0,1.275.81,5.042,5.042,0,0,0,1.6.255,10.324,10.324,0,0,0,2.61-.24A1.054,1.054,0,0,0,75-3.36v-6.3a2.742,2.742,0,0,0-.96-2.325,4.413,4.413,0,0,0-2.73-.735,9.068,9.068,0,0,0-2.61.405,6.262,6.262,0,0,0-2.22,1.125v-2.94a7.072,7.072,0,0,1,2.445-.915,15.732,15.732,0,0,1,3.315-.345,8.929,8.929,0,0,1,1.695.165,7,7,0,0,1,1.605.51,4.581,4.581,0,0,1,1.335.93,4.112,4.112,0,0,1,.915,1.425,5.4,5.4,0,0,1,.33,1.98v7.2a2.839,2.839,0,0,1-.915,2.265A5.092,5.092,0,0,1,74.73.165,19.823,19.823,0,0,1,71.19.45ZM82.71,0V-20.01h3.33V0Zm7.92-13.83a12.327,12.327,0,0,1,1.485-.615,16.516,16.516,0,0,1,1.755-.495q.93-.21,1.89-.33a15,15,0,0,1,1.86-.12,8.826,8.826,0,0,1,3.48.585,4.031,4.031,0,0,1,2.01,1.8,6.324,6.324,0,0,1,.66,3.045V0h-3.15V-9.54a4.743,4.743,0,0,0-.135-1.125,2.582,2.582,0,0,0-.51-1.02,2.494,2.494,0,0,0-1.08-.735,5.25,5.25,0,0,0-1.845-.27,9.629,9.629,0,0,0-1.665.15,9.659,9.659,0,0,0-1.6.42V0H90.63ZM112.98,0l-6.33-15.06h3.36l5.16,12.51-.75.09,4.8-12.6h3.27L116.13,0Zm18.09.45a7.873,7.873,0,0,1-3.855-.9,6.04,6.04,0,0,1-2.52-2.67,9.586,9.586,0,0,1-.885-4.32q0-3.93,1.845-5.955A6.608,6.608,0,0,1,130.8-15.42a6.576,6.576,0,0,1,3.93,1.08,6.051,6.051,0,0,1,2.175,3.015,13.233,13.233,0,0,1,.645,4.515H125.7l-.09-2.34h9.54l-.75.75a5.674,5.674,0,0,0-.96-3.375,3.321,3.321,0,0,0-2.73-1.065,3.952,3.952,0,0,0-2.04.495,3.084,3.084,0,0,0-1.275,1.68,9.75,9.75,0,0,0-.435,3.255,5.558,5.558,0,0,0,1.17,3.825,4.395,4.395,0,0,0,3.45,1.3,9.555,9.555,0,0,0,1.9-.18,10.483,10.483,0,0,0,1.635-.465q.75-.285,1.29-.555V-.57a12.965,12.965,0,0,1-2.37.735A14.124,14.124,0,0,1,131.07.45Zm14.46,0a9.461,9.461,0,0,1-2.745-.345A16.461,16.461,0,0,1,140.58-.75V-3.72q.78.48,1.53.855a7.83,7.83,0,0,0,1.575.585,7.486,7.486,0,0,0,1.845.21,3.359,3.359,0,0,0,2.025-.54,1.62,1.62,0,0,0,.735-1.35,1.333,1.333,0,0,0-.465-1.08,4.033,4.033,0,0,0-1.185-.66q-.72-.27-1.5-.54-.81-.21-1.62-.495a5.688,5.688,0,0,1-1.485-.78,3.626,3.626,0,0,1-1.08-1.275,4.131,4.131,0,0,1-.4-1.92,4.23,4.23,0,0,1,.51-2.145A4.29,4.29,0,0,1,142.4-14.3a5.811,5.811,0,0,1,1.83-.81,7.973,7.973,0,0,1,1.965-.255,8.3,8.3,0,0,1,2.6.39,14.88,14.88,0,0,1,1.965.87l.03,2.7q-1.08-.57-2.04-.99a5.5,5.5,0,0,0-2.22-.42,3.962,3.962,0,0,0-1.95.435,1.383,1.383,0,0,0-.78,1.275,1.511,1.511,0,0,0,.435,1.14,3.009,3.009,0,0,0,1.14.66q.705.24,1.515.48.75.24,1.56.495a5.506,5.506,0,0,1,1.5.735,3.706,3.706,0,0,1,1.125,1.26,4.172,4.172,0,0,1,.435,2.04,4.314,4.314,0,0,1-.885,2.73A4.877,4.877,0,0,1,148.38-.03,8.614,8.614,0,0,1,145.53.45ZM160.56.39a4.606,4.606,0,0,1-3.225-1.08,4.087,4.087,0,0,1-1.185-3.18v-8.58h-2.43v-2.61h2.43v-4.2h3.24v4.2h3.66v2.61h-3.66V-4.5a2.711,2.711,0,0,0,.375,1.575,1.609,1.609,0,0,0,1.4.525,3.972,3.972,0,0,0,1.02-.135,3.507,3.507,0,0,0,.87-.345V-.09a5.246,5.246,0,0,1-1.215.36A7.3,7.3,0,0,1,160.56.39Z" transform="translate(54 31)" fill="#fff"/>
  </g>
</svg>
